<svg width="24" height="25" viewBox="0 0 24 25" fill="none" xmlns="http://www.w3.org/2000/svg">
<path d="M15 23.146H9C3.57 23.146 1.25 20.8305 1.25 15.4109V9.42246C1.25 4.00291 3.57 1.68738 9 1.68738H15C20.43 1.68738 22.75 4.00291 22.75 9.42246V15.4109C22.75 20.8305 20.43 23.146 15 23.146ZM9 3.18449C4.39 3.18449 2.75 4.82133 2.75 9.42246V15.4109C2.75 20.012 4.39 21.6489 9 21.6489H15C19.61 21.6489 21.25 20.012 21.25 15.4109V9.42246C21.25 4.82133 19.61 3.18449 15 3.18449H9Z" fill="#4CB3D3"/>
<path d="M13.2599 16.6885C13.0699 16.6885 12.8799 16.6186 12.7299 16.4689L9.19992 12.9457C8.90992 12.6563 8.90992 12.1772 9.19992 11.8877L12.7299 8.36454C13.0199 8.0751 13.4999 8.0751 13.7899 8.36454C14.0799 8.65398 14.0799 9.13306 13.7899 9.4225L10.7899 12.4167L13.7899 15.411C14.0799 15.7004 14.0799 16.1795 13.7899 16.4689C13.6499 16.6186 13.4599 16.6885 13.2599 16.6885Z" fill="#4CB3D3"/>
</svg>
