<svg width="20" height="10" viewBox="0 0 20 10" fill="none" xmlns="http://www.w3.org/2000/svg">
<path d="M2.78703 0.950631C2.20748 0.515968 1.38529 0.633422 0.950631 1.21297C0.515968 1.79252 0.633422 2.61471 1.21297 3.04937L2.78703 0.950631ZM10 8L9.21297 9.04937C9.67936 9.39916 10.3206 9.39916 10.787 9.04937L10 8ZM18.787 3.04937C19.3666 2.61471 19.484 1.79252 19.0494 1.21297C18.6147 0.633422 17.7925 0.515968 17.213 0.950631L18.787 3.04937ZM1.21297 3.04937L9.21297 9.04937L10.787 6.95063L2.78703 0.950631L1.21297 3.04937ZM10.787 9.04937L18.787 3.04937L17.213 0.950631L9.21297 6.95063L10.787 9.04937Z" fill="#0D0E0E"/>
</svg>
