<svg width="34" height="30" viewBox="0 0 34 30" fill="none" xmlns="http://www.w3.org/2000/svg">
<rect width="34" height="30" rx="9" transform="matrix(1 0 0 -1 0 30)" fill="#4CB3D3"/>
<path d="M16.9995 22.8C16.2995 22.8 15.5995 22.53 15.0695 22L8.54953 15.48C8.25953 15.19 8.25953 14.71 8.54953 14.42C8.83953 14.13 9.31953 14.13 9.60953 14.42L16.1295 20.94C16.6095 21.42 17.3895 21.42 17.8695 20.94L24.3895 14.42C24.6795 14.13 25.1595 14.13 25.4495 14.42C25.7395 14.71 25.7395 15.19 25.4495 15.48L18.9295 22C18.3995 22.53 17.6995 22.8 16.9995 22.8Z" fill="white"/>
<path d="M16.9995 16.8C16.2995 16.8 15.5995 16.53 15.0695 16L8.54953 9.48001C8.25953 9.19001 8.25953 8.71001 8.54953 8.42001C8.83953 8.13001 9.31953 8.13001 9.60953 8.42001L16.1295 14.94C16.6095 15.42 17.3895 15.42 17.8695 14.94L24.3895 8.42001C24.6795 8.13001 25.1595 8.13001 25.4495 8.42001C25.7395 8.71001 25.7395 9.19001 25.4495 9.48001L18.9295 16C18.3995 16.53 17.6995 16.8 16.9995 16.8Z" fill="white"/>
</svg>
