<?xml version="1.0" encoding="UTF-8"?>
<svg width="303px" height="101px" viewBox="0 0 303 101" version="1.1" xmlns="http://www.w3.org/2000/svg" xmlns:xlink="http://www.w3.org/1999/xlink">
    <title>logo stroke@1.5x</title>
    <g id="Page-1" stroke="none" stroke-width="1" fill="none" fill-rule="evenodd">
        <g id="Artboard" transform="translate(-163.000000, -81.000000)" fill-rule="nonzero">
            <g id="logo-stroke" transform="translate(163.500000, 81.300000)">
                <g id="Group">
                    <path d="M302.1,75.7 L277.3,53.1 L277.3,24.2 C277.3,19.2 273.2,15.1 268.2,15.1 L27.6,15.1 C22.6,15.1 18.5,19.2 18.5,24.2 L18.5,91.2 C18.5,96.2 22.6,100.3 27.6,100.3 L268.2,100.3 C273.2,100.3 277.3,96.2 277.3,91.2 L277.3,76.6 L302.1,75.7 Z" id="Path" fill="#000000"></path>
                    <path d="M10.6,88.2 C4.8,88.2 5.68434189e-14,83.5 5.68434189e-14,77.6 L5.68434189e-14,10.6 C5.68434189e-14,4.8 4.7,-7.10542736e-15 10.6,-7.10542736e-15 L251.2,-7.10542736e-15 C257,-7.10542736e-15 261.8,4.7 261.8,10.6 L261.8,38.8 L288.8,63.5 L261.8,64.5 L261.8,77.6 C261.8,83.4 257.1,88.2 251.2,88.2 L10.6,88.2 Z" id="Path" fill="#000000"></path>
                    <path d="M285,62.1 L260.2,39.5 L260.2,10.6 C260.2,5.6 256.1,1.5 251.1,1.5 L10.6,1.5 C5.6,1.5 1.5,5.6 1.5,10.6 L1.5,77.6 C1.5,82.6 5.6,86.7 10.6,86.7 L251.2,86.7 C256.2,86.7 260.3,82.6 260.3,77.6 L260.3,63 L285,62.1 Z" id="Path" fill="#FFFFFF"></path>
                </g>
                <path d="M56.1,70.4 C55.4,70.4 54.7,70.3 54.1,70.1 C53.4,69.9 52.9,69.5 52.4,69.1 L47.8,65.3 C47.7,66.8 47.2,68 46.3,68.9 C45.3,69.9 44,70.4 42.3,70.4 L33.5,70.4 C32.8,70.4 32.1,70.3 31.5,70.1 C30.8,69.9 30.3,69.5 29.8,69.1 L22.4,62.9 C21.7,62.3 21.3,61.7 21,60.9 C20.7,60.2 20.6,59.4 20.6,58.6 L20.6,21.3 C20.6,19.6 21.1,18.2 22.1,17.3 C23.1,16.3 24.4,15.8 26.2,15.8 L35.1,15.8 C35.8,15.8 36.4,15.9 37,16.1 C37.7,16.3 38.3,16.6 38.8,17 L43.4,20.9 C43.5,19.4 44,18.2 44.9,17.3 C45.9,16.3 47.2,15.8 48.9,15.8 L57.8,15.8 C58.5,15.8 59.1,15.9 59.7,16.1 C60.4,16.3 61,16.6 61.5,17 L69,23.3 C69.6,23.9 70.1,24.5 70.4,25.3 C70.7,26 70.8,26.8 70.8,27.6 L70.8,64.9 C70.8,66.6 70.3,68 69.3,68.9 C68.3,69.9 67,70.4 65.3,70.4 L56.1,70.4 L56.1,70.4 Z" id="Path" fill="#000000"></path>
                <path d="M87.9,70.2 C87.2,70.2 86.5,70.1 85.9,69.9 C85.2,69.7 84.7,69.3 84.2,68.9 L76.8,62.7 C76.1,62.1 75.7,61.5 75.4,60.7 C75.1,60 75,59.2 75,58.4 L75,52.2 L66.9,41.3 C65.8,39.8 65.1,38.5 64.6,37.3 C64.2,36.1 64,34.4 64,32.2 L64,21.2 C64,19.5 64.5,18.1 65.5,17.2 C66.5,16.2 67.8,15.7 69.6,15.7 L78.2,15.7 C78.9,15.7 79.5,15.8 80.1,16 C80.8,16.2 81.4,16.5 81.9,16.9 L86.6,20.8 C86.7,19.3 87.2,18.1 88.1,17.2 C89.1,16.2 90.4,15.7 92.1,15.7 L101,15.7 C101.7,15.7 102.3,15.8 102.9,16 C103.6,16.2 104.2,16.5 104.7,16.9 L112.2,23.2 C112.8,23.8 113.3,24.4 113.6,25.2 C113.9,25.9 114,26.7 114,27.5 L114,38.5 C114,40.7 113.8,42.4 113.4,43.6 C113,44.8 112.3,46.1 111.1,47.6 L103,58.5 L103,64.7 C103,66.4 102.5,67.7 101.6,68.7 C100.6,69.7 99.2,70.2 97.5,70.2 L87.9,70.2 L87.9,70.2 Z" id="Path" fill="#000000"></path>
                <path d="M131.2,70.2 C130.5,70.2 129.8,70.1 129.2,69.9 C128.5,69.7 128,69.3 127.5,68.9 L120.1,62.7 C119.4,62.1 119,61.5 118.7,60.7 C118.4,60 118.3,59.2 118.3,58.4 L118.3,52.2 L110.2,41.3 C109.1,39.8 108.4,38.5 107.9,37.3 C107.5,36.1 107.3,34.4 107.3,32.2 L107.3,21.2 C107.3,19.5 107.8,18.1 108.8,17.2 C109.8,16.2 111.1,15.7 112.9,15.7 L121.5,15.7 C122.2,15.7 122.8,15.8 123.4,16 C124.1,16.2 124.7,16.5 125.2,16.9 L129.9,20.8 C130,19.3 130.5,18.1 131.4,17.2 C132.4,16.2 133.7,15.7 135.4,15.7 L144.3,15.7 C145,15.7 145.6,15.8 146.2,16 C146.9,16.2 147.5,16.5 148,16.9 L155.5,23.2 C156.1,23.8 156.6,24.4 156.9,25.2 C157.2,25.9 157.3,26.7 157.3,27.5 L157.3,38.5 C157.3,40.7 157.1,42.4 156.7,43.6 C156.3,44.8 155.6,46.1 154.4,47.6 L146.3,58.5 L146.3,64.7 C146.3,66.4 145.8,67.7 144.9,68.7 C143.9,69.7 142.5,70.2 140.8,70.2 L131.2,70.2 L131.2,70.2 Z" id="Path" fill="#000000"></path>
                <g id="Group" transform="translate(22.700000, 17.700000)" fill="#FF7F00">
                    <path d="M2.2,43.5 C0.7,43.5 -5.68434189e-14,42.8 -5.68434189e-14,41.3 L-5.68434189e-14,2.2 C-5.68434189e-14,0.7 0.7,0 2.2,0 L11.6,0 C13.1,0 13.8,0.7 13.8,2.2 L13.8,15.3 L23.9,15.3 L23.9,2.2 C23.9,0.7 24.6,0 26.1,0 L35.5,0 C37,0 37.7,0.7 37.7,2.2 L37.7,41.4 C37.7,42.9 37,43.6 35.5,43.6 L26.1,43.6 C24.6,43.6 23.9,42.9 23.9,41.4 L23.9,27.9 L13.8,27.9 L13.8,41.3 C13.8,42.8 13.1,43.5 11.6,43.5 L2.2,43.5 L2.2,43.5 Z" id="Path"></path>
                    <path d="M58.2,43.5 C56.6,43.5 56,42.8 56,41.3 L56,33.6 L46.8,21.2 C44.9,18.7 44.5,17.5 44.5,13.8 L44.5,2.2 C44.5,0.7 45.2,0 46.7,0 L56,0 C57.5,0 58.2,0.7 58.2,2.2 L58.2,12.1 C58.2,12.9 58.2,13.8 58.7,14.6 L61.5,19 C61.9,19.7 62.3,20 63,20 L63.6,20 C64.3,20 64.6,19.7 65.1,19 L67.9,14.6 C68.4,13.8 68.4,12.9 68.4,12.1 L68.4,2.2 C68.4,0.7 69.1,0 70.6,0 L79.6,0 C81.1,0 81.8,0.7 81.8,2.2 L81.8,13.8 C81.8,17.5 81.3,18.8 79.5,21.2 L70.3,33.6 L70.3,41.3 C70.3,42.8 69.6,43.5 68.1,43.5 L58.2,43.5 L58.2,43.5 Z" id="Path"></path>
                    <path d="M100.8,43.5 C99.2,43.5 98.6,42.8 98.6,41.3 L98.6,33.6 L89.4,21.2 C87.5,18.7 87.1,17.5 87.1,13.8 L87.1,2.2 C87.1,0.7 87.8,0 89.3,0 L98.6,0 C100.1,0 100.8,0.7 100.8,2.2 L100.8,12.1 C100.8,12.9 100.8,13.8 101.3,14.6 L104.1,19 C104.5,19.7 104.9,20 105.6,20 L106.2,20 C106.9,20 107.2,19.7 107.7,19 L110.5,14.6 C111,13.8 111,12.9 111,12.1 L111,2.2 C111,0.7 111.7,0 113.2,0 L122.2,0 C123.7,0 124.4,0.7 124.4,2.2 L124.4,13.8 C124.4,17.5 123.9,18.8 122.1,21.2 L112.9,33.6 L112.9,41.3 C112.9,42.8 112.2,43.5 110.7,43.5 L100.8,43.5 L100.8,43.5 Z" id="Path"></path>
                </g>
                <g id="Group" transform="translate(151.626824, 15.699691)">
                    <path d="M12.0731757,7.10542736e-15 L27.2731757,7.10542736e-15 C27.2731757,7.10542736e-15 32.7731757,-0.099691358 37.6731757,3.30030864 C43.6731757,7.40030864 43.9731757,7.80030864 45.2731757,9.20030864 C47.0731757,11.2003086 47.3731757,14.9003086 47.5731757,17.8003086 C47.7731757,20.8003086 46.8731757,28.2003086 46.8731757,29.6003086 C46.8731757,31.0003086 45.2731757,42.2003086 26.7731757,41.8003086 C8.17317565,41.4003086 12.0731757,7.10542736e-15 12.0731757,7.10542736e-15 Z" id="Path" fill="#000000"></path>
                    <path d="M0.273175653,12.2003086 C-0.826824347,-1.09969136 1.37317565,0.100308642 7.27317565,0.100308642 L14.7731757,0.100308642 C15.4731757,0.100308642 16.0731757,0.200308642 16.6731757,0.400308642 C17.3731757,0.600308642 17.9731757,0.900308642 18.4731757,1.30030864 L25.9731757,7.60030864 C26.5731757,8.20030864 27.0731757,8.80030864 27.3731757,9.60030864 C27.6731757,10.3003086 27.7731757,11.1003086 27.7731757,11.9003086 L27.7731757,49.2003086 C27.7731757,50.9003086 27.2731757,52.3003086 26.2731757,53.2003086 C25.2731757,54.2003086 23.9731757,54.7003086 22.2731757,54.7003086 L13.3731757,54.7003086 C12.6731757,54.7003086 11.9731757,54.6003086 11.3731757,54.4003086 C10.6731757,54.2003086 10.1731757,53.8003086 9.67317565,53.4003086 L2.27317565,47.2003086 C1.57317565,46.6003086 1.17317565,46.0003086 0.873175653,45.2003086 C0.573175653,44.5003086 0.473175653,43.7003086 0.473175653,42.9003086 L0.473175653,42.8003086" id="Path" fill="#000000"></path>
                    <path d="M5.07317565,45.5003086 C3.57317565,45.5003086 2.87317565,44.8003086 2.87317565,43.3003086 L2.87317565,4.20030864 C2.87317565,2.70030864 3.57317565,2.00030864 5.07317565,2.00030864 L23.5731757,2.00030864 C34.5731757,2.00030864 37.8731757,6.80030864 37.8731757,13.8003086 L37.8731757,21.5003086 C37.8731757,28.5003086 34.5731757,33.3003086 23.5731757,33.3003086 L16.6731757,33.3003086 L16.6731757,43.3003086 C16.6731757,44.8003086 15.9731757,45.5003086 14.4731757,45.5003086 L5.07317565,45.5003086 Z M16.4731757,22.5003086 L21.8731757,22.5003086 C24.2731757,22.5003086 24.6731757,21.1003086 24.6731757,19.5003086 L24.6731757,16.3003086 C24.6731757,14.7003086 24.1731757,13.3003086 21.8731757,13.3003086 L16.4731757,13.3003086 L16.4731757,22.5003086 Z" id="Shape" fill="#FF7F00"></path>
                </g>
                <path d="M194.8,28.2 L194.8,21.5 C194.8,19.8 195.3,18.4 196.3,17.5 C197.3,16.5 198.6,16 200.3,16 L227,16 C227.7,16 228.3,16.1 228.9,16.3 C229.6,16.5 230.2,16.8 230.7,17.2 L238.2,23.5 C238.8,24.1 239.3,24.7 239.6,25.5 C239.9,26.2 240,27 240,27.8 C240,27.8 240,35.7 240,36.7 C240,38.8 237.1,39.1 237.1,39.1 L237.1,50 C237.1,50 240,50.9 240,52.9 C240,54.9 240,65.1 240,65.1 C240,66.8 239.5,68.2 238.5,69.1 C237.5,70.1 236.2,70.6 234.5,70.6 L207.8,70.6 C207.1,70.6 206.4,70.5 205.8,70.3 C205.1,70.1 204.6,69.7 204.1,69.3 L196.7,63.1 C196,62.5 195.6,61.9 195.3,61.1 C195,60.4 194.9,59.6 194.9,58.8 L194.9,52.1 L194.9,28.2 L194.8,28.2 Z" id="Path" fill="#000000"></path>
                <path d="M199.2,61.7 C197.7,61.7 197,61 197,59.5 L197,20.4 C197,18.9 197.7,18.2 199.2,18.2 L227.2,18.2 C228.7,18.2 229.4,18.9 229.4,20.4 L229.4,27.5 C229.4,29 228.7,29.7 227.2,29.7 L210.5,29.7 L210.5,34.4 L222.3,34.4 C223.8,34.4 224.5,35.1 224.5,36.6 L224.5,43.1 C224.5,44.6 223.8,45.3 222.3,45.3 L210.5,45.3 L210.5,50.5 L227.2,50.5 C228.7,50.5 229.4,51.2 229.4,52.7 L229.4,59.8 C229.4,61.3 228.7,62 227.2,62 L199.2,62 L199.2,61.7 Z" id="Path" fill="#FF7F00"></path>
            </g>
        </g>
    </g>
</svg>