<svg width="34" height="30" viewBox="0 0 34 30" fill="none" xmlns="http://www.w3.org/2000/svg">
<g filter="url(#filter0_ii_185_510)">
<circle cx="17.3682" cy="15" r="15" fill="#43B4D4"/>
</g>
<g filter="url(#filter1_d_185_510)">
<circle cx="17.3668" cy="14.9996" r="12.4869" fill="#43B4D4"/>
</g>
<g clip-path="url(#clip0_185_510)">
<path d="M17.2798 18.6149H18.2624L18.6329 18.293V18.1315H17.2798H17.2984H15.9453V18.293L16.3158 18.6149H17.2984" fill="white"/>
<path d="M18.1714 18.3978V21.2313L17.7539 21.5203V18.2524L18.1714 18.3978Z" fill="white"/>
<path d="M16.417 18.3978V21.2313L16.8348 21.5203V18.2524L16.417 18.3978Z" fill="white"/>
<path d="M17.4427 21.6963L17.296 21.8408L17.1348 21.6963V18.3733H17.4427V21.6963Z" fill="white"/>
<path d="M24.4263 16.3764L24.424 16.3787C24.529 15.933 24.5902 15.4781 24.6067 15.0206L24.6409 15.005C24.6409 15.005 25.0955 14.8099 25.3683 14.5328C25.6411 14.2557 25.6904 12.8944 25.6904 12.8944C25.6904 12.8944 24.7151 13.4342 24.5727 13.7518C24.5623 13.7755 24.5524 13.7989 24.5437 13.8223C24.4961 13.4882 24.4299 13.157 24.3454 12.8303L24.4142 12.7725C24.4142 12.7725 24.7983 12.4604 24.9833 12.1206C25.1682 11.7808 24.8427 10.4568 24.8427 10.4568C24.8427 10.4568 24.0529 11.2425 24.0036 11.5869C24.0013 11.6034 23.999 11.6198 23.9972 11.6363C23.8813 11.2982 23.7389 10.9454 23.5792 10.5906L23.6438 10.5137C23.6438 10.5137 23.9685 10.1415 24.0941 9.77398C24.2196 9.40642 23.6725 8.15813 23.6725 8.15813C23.6725 8.15813 23.0277 9.06574 23.0376 9.41365C23.0376 9.44052 23.0399 9.4671 23.0417 9.49311C22.8616 9.14896 22.6787 8.81811 22.5059 8.51354L22.5427 8.46876C22.5427 8.46876 22.8631 8.09311 22.984 7.72353C23.1049 7.35396 22.5427 6.11317 22.5427 6.11317C22.5427 6.11317 21.9092 7.02801 21.9234 7.37476C21.9257 7.43255 21.9307 7.49034 21.9371 7.54351C21.7051 7.17856 21.5254 6.96069 21.401 6.83239C21.401 6.69773 21.3929 6.17501 21.294 5.92275C21.1801 5.63321 20.6747 5.17868 20.3828 4.93076C20.2194 4.7894 20.043 4.66363 19.856 4.55511C19.856 4.55511 19.8954 5.21971 19.9557 5.59825C20.027 6.04527 20.143 6.3374 20.3819 6.53967C20.5808 6.70814 21.0542 6.88642 21.207 6.94248C21.3624 7.11892 21.5036 7.30733 21.6292 7.50595C21.5578 7.47161 21.4802 7.45196 21.401 7.44816C21.0264 7.434 20.2149 7.59697 20.2149 7.59697C20.2149 7.59697 20.706 8.19309 21.0122 8.35635C21.2644 8.49072 22.0243 8.58752 22.2835 8.61641C22.4456 8.90335 22.6245 9.229 22.8031 9.57344C22.716 9.51916 22.617 9.48692 22.5146 9.47953C22.14 9.46075 21.3259 9.61418 21.3259 9.61418C21.3259 9.61418 21.8098 10.2161 22.1139 10.3831C22.3482 10.5117 23.0257 10.6117 23.3249 10.651C23.4794 10.9928 23.6166 11.3421 23.736 11.6976C23.661 11.6329 23.5715 11.5869 23.4751 11.5635C23.1095 11.4817 22.2818 11.4956 22.2818 11.4956C22.2818 11.4956 22.6561 12.1703 22.9274 12.3862C23.1341 12.5509 23.7734 12.7618 24.0662 12.852C24.139 13.1415 24.197 13.4345 24.2402 13.7298C24.1932 13.6719 24.1355 13.6235 24.0703 13.5871C23.7438 13.407 22.9428 13.1941 22.9428 13.1941C22.9428 13.1941 23.1167 13.9454 23.3197 14.2274C23.4777 14.4482 24.0628 14.8411 24.3083 15.0004C24.2885 15.4255 24.2293 15.8479 24.1315 16.2622C24.1071 16.1838 24.067 16.1111 24.0135 16.0487C23.765 15.7687 23.0857 15.296 23.0857 15.296C23.0857 15.296 22.9921 16.0617 23.0857 16.394C23.1576 16.6523 23.5641 17.2109 23.7433 17.449C23.5882 17.7989 23.4 18.1333 23.1814 18.4476C23.1842 18.3652 23.17 18.2831 23.1397 18.2063C22.9961 17.8613 22.5088 17.195 22.5088 17.195C22.5088 17.195 22.1704 17.8885 22.1493 18.2338C22.1342 18.4817 22.3064 19.0666 22.4047 19.3766C21.7985 19.9872 21.129 20.4547 20.5347 20.8139C20.6582 20.6844 20.7916 20.496 20.7997 20.2837C20.8151 19.8817 20.6385 19.0122 20.6385 19.0122C20.6385 19.0122 19.9949 19.5393 19.8186 19.8679C19.6423 20.1964 19.5287 21.3268 19.5287 21.3268C19.5287 21.3268 19.5063 21.3907 19.4892 21.4002C19.4892 21.4002 18.5368 21.8146 18.2466 21.9492C17.9396 22.0914 17.6201 22.2335 17.2899 22.4072C16.9594 22.2338 16.6399 22.0914 16.3331 21.9492C16.0432 21.8151 15.1911 21.4447 15.1911 21.4447C15.1722 21.4367 15.1557 21.424 15.1433 21.4077C15.1433 21.4077 15.0273 20.277 14.8519 19.9485C14.6765 19.6199 14.0317 19.0929 14.0317 19.0929C14.0317 19.0929 13.8555 19.9638 13.8708 20.3643C13.8781 20.5495 13.9793 20.7154 14.0865 20.8405C13.4823 20.4781 12.7943 20.0025 12.173 19.3772C12.2716 19.0672 12.4438 18.4814 12.4288 18.2344C12.4076 17.8891 12.069 17.1956 12.069 17.1956C12.069 17.1956 11.5816 17.8625 11.4384 18.2069C11.4078 18.2836 11.3936 18.3658 11.3966 18.4482C11.1779 18.1339 10.9897 17.7995 10.8348 17.4496C11.0139 17.2115 11.4204 16.6529 11.4923 16.3946C11.5851 16.0611 11.4923 15.2965 11.4923 15.2965C11.4923 15.2965 10.8136 15.7693 10.5645 16.0493C10.5111 16.1115 10.4711 16.184 10.4471 16.2622C10.3494 15.8479 10.2903 15.4255 10.2706 15.0004C10.5158 14.8411 11.1012 14.4482 11.2592 14.2274C11.4621 13.9457 11.6361 13.1941 11.6361 13.1941C11.6361 13.1941 10.8339 13.407 10.5051 13.5856C10.4399 13.6221 10.3821 13.6705 10.3349 13.7284C10.3793 13.4229 10.4405 13.1314 10.5089 12.8505C10.8017 12.7598 11.4407 12.5494 11.6477 12.3847C11.9188 12.1689 12.2934 11.4941 12.2934 11.4941C12.2934 11.4941 11.4656 11.4803 11.0997 11.562C11.0033 11.5854 10.9139 11.6314 10.8388 11.6961C10.9581 11.3406 11.0952 10.9913 11.2496 10.6495C11.5488 10.6102 12.2267 10.5102 12.4609 10.3817C12.7651 10.2146 13.2489 9.61274 13.2489 9.61274C13.2489 9.61274 12.4354 9.4593 12.0603 9.47809C11.9574 9.48528 11.8578 9.51753 11.7703 9.572C11.9492 9.22756 12.1281 8.9019 12.2899 8.61497C12.5494 8.58607 13.3092 8.48956 13.5615 8.35491C13.8676 8.19164 14.3588 7.59553 14.3588 7.59553C14.3588 7.59553 13.547 7.43255 13.1727 7.44671C13.0934 7.45051 13.0157 7.47017 12.9442 7.5045C13.0713 7.30581 13.214 7.11749 13.371 6.94132C13.5235 6.88613 13.9972 6.70698 14.1961 6.53852C14.435 6.33625 14.551 6.04411 14.6223 5.59709C14.6823 5.21943 14.7217 4.55396 14.7217 4.55396C14.5348 4.66248 14.3584 4.78824 14.195 4.9296C13.9033 5.17782 13.3977 5.63206 13.284 5.92275C13.1852 6.17501 13.1773 6.69773 13.1768 6.83239C13.0524 6.96069 12.8729 7.17914 12.641 7.54351C12.6474 7.49006 12.6523 7.43371 12.6546 7.37476C12.6688 7.02801 12.0353 6.11202 12.0353 6.11202C12.0353 6.11202 11.4729 7.35453 11.5941 7.72238C11.7153 8.09022 12.0353 8.4676 12.0353 8.4676L12.0721 8.51239C11.8982 8.81695 11.7164 9.1481 11.5364 9.49196C11.5381 9.46595 11.5396 9.43936 11.5401 9.41249C11.5503 9.06574 10.9055 8.15697 10.9055 8.15697C10.9055 8.15697 10.3584 9.40642 10.4839 9.77311C10.6095 10.1398 10.9342 10.5128 10.9342 10.5128L10.998 10.5906C10.8382 10.9454 10.6947 11.2982 10.5802 11.6363C10.5782 11.6198 10.5761 11.6034 10.5738 11.5869C10.5245 11.2425 9.73479 10.4568 9.73479 10.4568C9.73479 10.4568 9.40776 11.7796 9.59389 12.1206C9.78002 12.4616 10.1636 12.7734 10.1636 12.7734L10.2323 12.8312C10.1481 13.1579 10.082 13.4891 10.0343 13.8231C10.0247 13.7997 10.0151 13.7763 10.0053 13.7526C9.86323 13.4348 8.88764 12.8953 8.88764 12.8953C8.88764 12.8953 8.93721 14.2566 9.21003 14.5337C9.48285 14.8108 9.93745 15.0058 9.93745 15.0058L9.97166 15.0215C9.98816 15.479 10.0492 15.9338 10.154 16.3796L10.152 16.3772C9.90932 16.127 8.80762 15.9522 8.80762 15.9522C8.80762 15.9522 9.32078 17.2149 9.67217 17.3822C10.0236 17.5495 10.5179 17.5782 10.5179 17.5782L10.5419 17.5799C10.7031 17.9512 10.8995 18.3063 11.1284 18.6404C10.7863 18.5043 9.74523 18.6863 9.74523 18.6863C9.74523 18.6863 10.644 19.7135 11.0296 19.758C11.4152 19.8025 11.893 19.669 11.893 19.669L11.9684 19.6497C12.5009 20.1854 13.0785 20.6134 13.6113 20.9546C13.1686 21.0821 12.429 21.5903 12.429 21.5903C12.429 21.5903 13.7705 22.194 14.1686 22.0639C14.4417 21.9752 14.718 21.786 14.8644 21.6756L14.9444 21.7183C15.8098 22.1807 16.3578 22.6092 16.6471 22.7826C16.2653 23.0342 15.9102 23.3239 15.5875 23.6474C14.6342 24.5975 14.4608 25.2884 14.4608 25.2884C14.4608 25.2884 14.9238 24.8856 15.4729 24.4233C15.8397 24.1161 16.6831 23.5642 17.2893 23.1808C17.8952 23.5648 18.7389 24.1167 19.1054 24.4233C19.6542 24.8839 20.1166 25.287 20.1166 25.287C20.1166 25.287 19.9427 24.5961 18.99 23.646C18.6672 23.3225 18.3122 23.0327 17.9303 22.7811C18.2202 22.6077 18.7676 22.1798 19.633 21.7169L19.8293 21.6117C19.9815 21.7238 20.243 21.8981 20.5019 21.9824C20.9003 22.1122 22.2415 21.5088 22.2415 21.5088C22.2415 21.5088 21.5254 21.0176 21.0818 20.8792C21.6329 20.5227 22.1454 20.1101 22.6111 19.6482L22.6862 19.6676C22.6862 19.6676 23.1628 19.8008 23.5496 19.7566C23.9364 19.7124 24.8342 18.6849 24.8342 18.6849C24.8342 18.6849 23.7931 18.5028 23.4507 18.6389C23.6799 18.3049 23.8764 17.9498 24.0375 17.5784L24.0616 17.5767C24.0616 17.5767 24.5545 17.5478 24.907 17.3808C25.2596 17.2138 25.7719 15.9507 25.7719 15.9507C25.7719 15.9507 24.669 16.1261 24.4263 16.3764Z" fill="white"/>
<path d="M15.8303 17.5555C16.0008 17.6064 16.7067 17.6078 16.7067 17.6078C16.7067 17.6078 15.9399 16.9406 15.9239 15.9917C15.8888 14.0383 15.8314 13.4757 15.8314 13.4757C15.7485 13.9333 15.5884 14.3736 15.3577 14.7778C14.9791 15.4346 14.9301 15.818 14.964 16.3939C14.9979 16.9698 15.6598 17.5046 15.8303 17.5555Z" fill="white"/>
<path d="M17.1143 17.6078C17.4808 17.7604 17.8812 17.6078 17.8812 17.6078C17.8812 17.6078 17.0877 16.8132 17.0462 16.083C17.0047 15.3528 17.4211 14.9872 17.6426 14.342C17.8641 13.6968 17.7107 13.0501 17.5744 12.5837C17.4369 12.0924 17.1925 11.6373 16.8586 11.2507C16.8586 11.2507 17.2335 11.9153 16.8586 12.8316C16.4838 13.7479 16.3817 13.8181 16.1991 14.6116C16.1187 14.9584 16.1428 16.0778 16.371 16.6277C16.6232 17.2376 16.6542 17.4162 17.1143 17.6078Z" fill="white"/>
<path d="M18.3307 16.8445C18.1312 17.0297 17.7812 16.9601 17.7812 16.9601C17.7812 16.9601 18.0375 17.5958 18.4805 17.6079C18.9235 17.62 19.4663 17.2068 19.4326 16.5133C19.399 15.8198 19.1813 15.3058 18.9212 14.6478C18.7638 14.2485 18.6377 14.1046 18.6603 13.7344C18.6823 13.3825 18.7505 13.2209 18.7505 13.2209C18.7505 13.2209 18.224 13.8278 18.2222 14.3251C18.2222 14.5629 18.6832 15.5343 18.6823 15.9918C18.6823 16.2669 18.6032 16.5911 18.3307 16.8445Z" fill="white"/>
<path d="M17.8807 16.0396V16.0402L17.8809 16.0399L17.8812 16.0402V16.0396L18.2915 15.701L17.8812 14.8243V14.8231L17.8809 14.8237L17.8807 14.8231V14.8243L17.4707 15.701L17.8807 16.0396Z" fill="white"/>
<path d="M18.3216 15.97L17.8815 16.2991L17.4414 15.97C17.4414 15.97 17.3991 16.269 17.4753 16.4233C17.5516 16.5776 17.6403 16.7042 17.8812 16.7169C18.1221 16.7042 18.2109 16.5776 18.2871 16.4233C18.3634 16.269 18.3216 15.97 18.3216 15.97Z" fill="white"/>
</g>
<defs>
<filter id="filter0_ii_185_510" x="-1.76977" y="-4.13794" width="38.2759" height="38.2759" filterUnits="userSpaceOnUse" color-interpolation-filters="sRGB">
<feFlood flood-opacity="0" result="BackgroundImageFix"/>
<feBlend mode="normal" in="SourceGraphic" in2="BackgroundImageFix" result="shape"/>
<feColorMatrix in="SourceAlpha" type="matrix" values="0 0 0 0 0 0 0 0 0 0 0 0 0 0 0 0 0 0 127 0" result="hardAlpha"/>
<feOffset dx="4.13794" dy="4.13794"/>
<feGaussianBlur stdDeviation="4.13794"/>
<feComposite in2="hardAlpha" operator="arithmetic" k2="-1" k3="1"/>
<feColorMatrix type="matrix" values="0 0 0 0 0 0 0 0 0 0 0 0 0 0 0 0 0 0 0.25 0"/>
<feBlend mode="normal" in2="shape" result="effect1_innerShadow_185_510"/>
<feColorMatrix in="SourceAlpha" type="matrix" values="0 0 0 0 0 0 0 0 0 0 0 0 0 0 0 0 0 0 127 0" result="hardAlpha"/>
<feOffset dx="-4.13794" dy="-4.13794"/>
<feGaussianBlur stdDeviation="4.13794"/>
<feComposite in2="hardAlpha" operator="arithmetic" k2="-1" k3="1"/>
<feColorMatrix type="matrix" values="0 0 0 0 0 0 0 0 0 0 0 0 0 0 0 0 0 0 0.25 0"/>
<feBlend mode="normal" in2="effect1_innerShadow_185_510" result="effect2_innerShadow_185_510"/>
</filter>
<filter id="filter1_d_185_510" x="0.741947" y="2.5127" width="33.2495" height="33.2497" filterUnits="userSpaceOnUse" color-interpolation-filters="sRGB">
<feFlood flood-opacity="0" result="BackgroundImageFix"/>
<feColorMatrix in="SourceAlpha" type="matrix" values="0 0 0 0 0 0 0 0 0 0 0 0 0 0 0 0 0 0 127 0" result="hardAlpha"/>
<feOffset dy="4.13794"/>
<feGaussianBlur stdDeviation="2.06897"/>
<feComposite in2="hardAlpha" operator="out"/>
<feColorMatrix type="matrix" values="0 0 0 0 0 0 0 0 0 0 0 0 0 0 0 0 0 0 0.04 0"/>
<feBlend mode="normal" in2="BackgroundImageFix" result="effect1_dropShadow_185_510"/>
<feBlend mode="normal" in="SourceGraphic" in2="effect1_dropShadow_185_510" result="shape"/>
</filter>
<clipPath id="clip0_185_510">
<rect width="16.9634" height="20.733" fill="white" transform="translate(8.80762 4.55469)"/>
</clipPath>
</defs>
</svg>
