<svg width="135" height="165" viewBox="0 0 135 165" fill="none" xmlns="http://www.w3.org/2000/svg">
<g clip-path="url(#clip0_269_1000)">
<path d="M67.4262 111.895H75.2456L78.1943 109.333V108.048H67.4262H67.5738H56.8057V109.333L59.7544 111.895H67.5738" fill="#43B4D4"/>
<path d="M74.5163 110.168V132.718L71.1938 135.018V109.011L74.5163 110.168Z" fill="#43B4D4"/>
<path d="M60.5571 110.168V132.718L63.8819 135.018V109.011L60.5571 110.168Z" fill="#43B4D4"/>
<path d="M68.7253 136.418L67.5578 137.568L66.2749 136.418V109.972H68.7253V136.418Z" fill="#43B4D4"/>
<path d="M124.301 94.0817L124.283 94.1002C125.118 90.553 125.605 86.9332 125.736 83.2919L126.009 83.1678C126.009 83.1678 129.626 81.6155 131.798 79.4102C133.969 77.2048 134.361 66.3713 134.361 66.3713C134.361 66.3713 126.599 70.667 125.466 73.1943C125.383 73.3829 125.305 73.5691 125.236 73.7554C124.857 71.0968 124.33 68.4612 123.657 65.8608L124.204 65.4009C124.204 65.4009 127.261 62.9173 128.734 60.213C130.206 57.5086 127.614 46.9717 127.614 46.9717C127.614 46.9717 121.329 53.2244 120.937 55.9656C120.919 56.0966 120.9 56.2277 120.886 56.3588C119.963 53.6682 118.831 50.8604 117.559 48.0365L118.074 47.4248C118.074 47.4248 120.658 44.4629 121.657 41.5377C122.656 38.6126 118.302 28.6783 118.302 28.6783C118.302 28.6783 113.171 35.9014 113.249 38.6701C113.249 38.884 113.268 39.0955 113.282 39.3025C111.849 36.5637 110.393 33.9306 109.018 31.5068L109.311 31.1504C109.311 31.1504 111.86 28.1609 112.822 25.2196C113.785 22.2784 109.311 12.4039 109.311 12.4039C109.311 12.4039 104.269 19.6845 104.382 22.444C104.401 22.9039 104.44 23.3638 104.491 23.787C102.645 20.8826 101.214 19.1487 100.225 18.1276C100.225 17.056 100.16 12.896 99.3731 10.8884C98.4664 8.5842 94.4448 4.96689 92.1213 2.99382C90.8207 1.86884 89.4171 0.867953 87.9289 0.004315C87.9289 0.004315 88.2427 5.29344 88.7226 8.30594C89.2902 11.8635 90.2132 14.1884 92.1144 15.7981C93.6972 17.1388 97.465 18.5576 98.6809 19.0038C99.9176 20.4079 101.041 21.9074 102.04 23.488C101.472 23.2148 100.855 23.0583 100.225 23.0281C97.2435 22.9154 90.7854 24.2124 90.7854 24.2124C90.7854 24.2124 94.6939 28.9565 97.1304 30.2558C99.1378 31.3251 105.185 32.0955 107.248 32.3255C108.538 34.609 109.961 37.2007 111.383 39.9418C110.69 39.5098 109.902 39.2532 109.087 39.1944C106.106 39.045 99.6269 40.2661 99.6269 40.2661C99.6269 40.2661 103.478 45.0562 105.898 46.3853C107.762 47.4087 113.155 48.2043 115.536 48.5171C116.765 51.2373 117.857 54.0172 118.808 56.8463C118.21 56.3315 117.498 55.9657 116.731 55.7793C113.821 55.1285 107.234 55.2389 107.234 55.2389C107.234 55.2389 110.213 60.6085 112.372 62.3263C114.018 63.6371 119.105 65.3158 121.436 66.0333C122.014 68.3374 122.476 70.6691 122.82 73.0195C122.446 72.5588 121.987 72.1733 121.468 71.8835C118.87 70.4509 112.495 68.756 112.495 68.756C112.495 68.756 113.879 74.7351 115.494 76.9795C116.752 78.7364 121.408 81.8639 123.362 83.131C123.204 86.5145 122.733 89.8763 121.955 93.1734C121.761 92.5492 121.441 91.9709 121.016 91.474C119.038 89.2457 113.632 85.4835 113.632 85.4835C113.632 85.4835 112.887 91.5775 113.632 94.222C114.204 96.2779 117.439 100.723 118.865 102.618C117.631 105.402 116.134 108.064 114.394 110.565C114.416 109.909 114.303 109.256 114.061 108.645C112.919 105.899 109.041 100.597 109.041 100.597C109.041 100.597 106.348 106.116 106.18 108.864C106.06 110.837 107.43 115.491 108.212 117.959C103.388 122.818 98.0603 126.539 93.3303 129.397C94.3132 128.367 95.3746 126.867 95.4392 125.177C95.5615 121.978 94.1563 115.059 94.1563 115.059C94.1563 115.059 89.0341 119.253 87.6313 121.868C86.2285 124.483 85.324 133.479 85.324 133.479C85.324 133.479 85.1463 133.987 85.0102 134.063C85.0102 134.063 77.4307 137.361 75.1211 138.432C72.6777 139.564 70.1351 140.695 67.507 142.077C64.8767 140.697 62.3341 139.564 59.893 138.432C57.5857 137.365 50.8045 134.417 50.8045 134.417C50.654 134.354 50.5228 134.252 50.4238 134.123C50.4238 134.123 49.5009 125.124 48.105 122.51C46.7091 119.895 41.5776 115.7 41.5776 115.7C41.5776 115.7 40.1748 122.632 40.2971 125.819C40.3548 127.293 41.16 128.613 42.0137 129.609C37.2053 126.725 31.7301 122.94 26.7856 117.963C27.57 115.496 28.9406 110.834 28.8206 108.868C28.6522 106.12 25.9572 100.601 25.9572 100.601C25.9572 100.601 22.0787 105.909 20.9389 108.65C20.6959 109.26 20.5827 109.914 20.6066 110.57C18.8657 108.069 17.3684 105.407 16.1351 102.623C17.561 100.728 20.7958 96.2825 21.368 94.2266C22.1064 91.5729 21.368 85.4881 21.368 85.4881C21.368 85.4881 15.9666 89.2503 13.9847 91.4786C13.5595 91.9734 13.2413 92.5504 13.0502 93.1734C12.2724 89.8762 11.8021 86.5144 11.6451 83.131C13.597 81.8639 18.2555 78.7364 19.513 76.9795C21.1281 74.7374 22.5124 68.756 22.5124 68.756C22.5124 68.756 16.1281 70.4509 13.5117 71.872C12.9925 72.1624 12.533 72.5478 12.1573 73.008C12.5103 70.5773 12.9971 68.257 13.5417 66.0218C15.872 65.2997 20.9573 63.6256 22.6047 62.3148C24.7621 60.597 27.7431 55.2274 27.7431 55.2274C27.7431 55.2274 21.1557 55.117 18.2439 55.7678C17.4765 55.9539 16.7646 56.3197 16.1674 56.8348C17.117 54.0057 18.2081 51.2258 19.4368 48.5056C21.8179 48.1928 27.2124 47.3972 29.0767 46.3738C31.4971 45.0447 35.3479 40.2546 35.3479 40.2546C35.3479 40.2546 28.8737 39.0335 25.888 39.1829C25.0692 39.2402 24.2769 39.4969 23.5807 39.9303C25.0043 37.1892 26.4279 34.5975 27.7154 32.314C29.7804 32.084 35.8279 31.3159 37.8352 30.2443C40.2717 28.945 44.1803 24.2009 44.1803 24.2009C44.1803 24.2009 37.7198 22.9039 34.7411 23.0166C34.1103 23.0468 33.4919 23.2033 32.923 23.4765C33.9342 21.8953 35.0699 20.3966 36.3193 18.9946C37.5329 18.5553 41.3031 17.1296 42.8859 15.7889C44.7871 14.1792 45.71 11.8543 46.2776 8.29674C46.7552 5.29114 47.069 -0.00488281 47.069 -0.00488281C45.5808 0.858755 44.1772 1.85964 42.8766 2.98462C40.5555 4.96 36.5316 8.575 35.6271 10.8884C34.8403 12.896 34.778 17.056 34.7734 18.1276C33.7836 19.1487 32.3554 20.8872 30.5095 23.787C30.5603 23.3615 30.5995 22.9131 30.618 22.444C30.731 19.6845 25.6896 12.3947 25.6896 12.3947C25.6896 12.3947 21.2134 22.283 22.1779 25.2104C23.1423 28.1379 25.6896 31.1412 25.6896 31.1412L25.9826 31.4976C24.5982 33.9214 23.1516 36.5568 21.7187 39.2933C21.7326 39.0863 21.7441 38.8748 21.7487 38.6609C21.8295 35.9014 16.698 28.6691 16.698 28.6691C16.698 28.6691 12.3442 38.6126 13.3432 41.5308C14.3423 44.4491 16.9265 47.4179 16.9265 47.4179L17.4341 48.0365C16.1628 50.8604 15.0206 53.6682 14.1093 56.3588C14.0931 56.2277 14.077 56.0966 14.0585 55.9656C13.6663 53.2244 7.38118 46.9717 7.38118 46.9717C7.38118 46.9717 4.77855 57.4994 6.25983 60.213C7.74112 62.9265 10.7937 65.4078 10.7937 65.4078L11.3405 65.8677C10.6701 68.4684 10.144 71.1039 9.76462 73.7623C9.68848 73.576 9.61234 73.3898 9.53389 73.2012C8.40331 70.6716 0.639256 66.3782 0.639256 66.3782C0.639256 66.3782 1.0338 77.2117 3.20497 79.4171C5.37614 81.6224 8.99398 83.1747 8.99398 83.1747L9.26624 83.2988C9.39762 86.9399 9.88367 90.5597 10.7175 94.107L10.7014 94.0886C8.77017 92.0972 0.00244141 90.7059 0.00244141 90.7059C0.00244141 90.7059 4.08636 100.755 6.8828 102.087C9.67925 103.418 13.6132 103.646 13.6132 103.646L13.8047 103.66C15.087 106.615 16.65 109.441 18.4724 112.099C15.7497 111.016 7.46424 112.465 7.46424 112.465C7.46424 112.465 14.6169 120.64 17.6856 120.994C20.7543 121.348 24.5567 120.286 24.5567 120.286L25.1566 120.132C29.3951 124.395 33.9912 127.801 38.2321 130.517C34.7088 131.531 28.8229 135.576 28.8229 135.576C28.8229 135.576 39.4988 140.38 42.6667 139.345C44.8402 138.639 47.039 137.133 48.2042 136.254L48.841 136.595C55.7283 140.274 60.0891 143.685 62.3918 145.064C59.353 147.067 56.5273 149.373 53.9586 151.947C46.3722 159.508 44.9924 165.007 44.9924 165.007C44.9924 165.007 48.6772 161.801 53.0472 158.122C55.966 155.677 62.6779 151.285 67.5024 148.233C72.3247 151.289 79.0389 155.682 81.9554 158.122C86.3231 161.787 90.0032 164.995 90.0032 164.995C90.0032 164.995 88.6188 159.497 81.037 151.936C78.4684 149.361 75.6426 147.055 72.6039 145.053C74.9112 143.673 79.2673 140.267 86.1546 136.583L87.7167 135.746C88.928 136.639 91.0092 138.025 93.0696 138.697C96.2398 139.729 106.913 134.928 106.913 134.928C106.913 134.928 101.214 131.018 97.6842 129.917C102.07 127.079 106.149 123.796 109.855 120.12L110.453 120.274C110.453 120.274 114.246 121.335 117.324 120.983C120.402 120.631 127.548 112.453 127.548 112.453C127.548 112.453 119.262 111.005 116.537 112.088C118.361 109.43 119.925 106.604 121.207 103.648L121.399 103.634C121.399 103.634 125.321 103.404 128.127 102.075C130.932 100.746 135.009 90.6944 135.009 90.6944C135.009 90.6944 126.232 92.0903 124.301 94.0817Z" fill="#43B4D4"/>
<path d="M55.8733 103.464C57.23 103.869 62.8483 103.881 62.8483 103.881C62.8483 103.881 56.7455 98.5708 56.6186 91.0189C56.3394 75.4735 55.8825 70.9961 55.8825 70.9961C55.2228 74.6378 53.948 78.1415 52.1124 81.3582C49.0991 86.5852 48.7092 89.6368 48.9791 94.2199C49.2491 98.8031 54.5166 103.06 55.8733 103.464Z" fill="#43B4D4"/>
<path d="M66.1043 103.881C69.0207 105.095 72.2071 103.881 72.2071 103.881C72.2071 103.881 65.892 97.5567 65.5621 91.7456C65.2321 85.9345 68.5454 83.0254 70.3082 77.8904C72.071 72.7553 70.8504 67.6088 69.766 63.8972C68.6714 59.9872 66.7265 56.3654 64.0693 53.2891C64.0693 53.2891 67.0526 58.5782 64.0693 65.8703C61.0859 73.1624 60.2738 73.7212 58.8202 80.0359C58.181 82.7955 58.3725 91.7042 60.1884 96.0804C62.1957 100.935 62.4426 102.356 66.1043 103.881Z" fill="#43B4D4"/>
<path d="M75.7786 97.805C74.1912 99.279 71.4062 98.7248 71.4062 98.7248C71.4062 98.7248 73.4459 103.784 76.9715 103.881C80.497 103.977 84.8163 100.689 84.5486 95.1696C84.281 89.6505 82.5482 85.5595 80.4786 80.3233C79.2257 77.1452 78.222 76 78.402 73.0542C78.5773 70.2533 79.1196 68.9678 79.1196 68.9678C79.1196 68.9678 74.9295 73.797 74.9157 77.7546C74.9157 79.6472 78.5843 87.3785 78.5773 91.0188C78.5773 93.208 77.9474 95.7882 75.7786 97.805Z" fill="#43B4D4"/>
<path d="M72.2044 91.4006V91.4052L72.2067 91.4029L72.209 91.4052V91.4006L75.4739 88.7055L72.209 81.7284V81.7192L72.2067 81.7238L72.2044 81.7192V81.7284L68.9419 88.7055L72.2044 91.4006Z" fill="#43B4D4"/>
<path d="M75.7096 90.8467L72.2071 93.4659L68.7046 90.8467C68.7046 90.8467 68.3677 93.2268 68.9745 94.4548C69.5814 95.6828 70.2874 96.69 72.2048 96.7912C74.1221 96.69 74.8282 95.6828 75.435 94.4548C76.0418 93.2268 75.7096 90.8467 75.7096 90.8467Z" fill="#43B4D4"/>
</g>
<defs>
<clipPath id="clip0_269_1000">
<rect width="135" height="165" fill="white"/>
</clipPath>
</defs>
</svg>
